<svg xmlns="http://www.w3.org/2000/svg" viewBox="0 0 1600 900" width="1600" height="900" preserveAspectRatio="xMidYMid slice">
  <defs>
    <linearGradient id="bgGrad" x1="0%" y1="0%" x2="100%" y2="100%">
      <stop offset="0%" style="stop-color:#0a1628"/>
      <stop offset="60%" style="stop-color:#0f2240"/>
      <stop offset="100%" style="stop-color:#1a3560"/>
    </linearGradient>
    <linearGradient id="goldGrad" x1="0%" y1="0%" x2="100%" y2="100%">
      <stop offset="0%" style="stop-color:#e5c06a"/>
      <stop offset="100%" style="stop-color:#b17a32"/>
    </linearGradient>
    <linearGradient id="cardGrad" x1="0%" y1="0%" x2="0%" y2="100%">
      <stop offset="0%" style="stop-color:#162b4d;stop-opacity:0.95"/>
      <stop offset="100%" style="stop-color:#0d1e36;stop-opacity:0.95"/>
    </linearGradient>
    <linearGradient id="barBlue" x1="0%" y1="0%" x2="0%" y2="100%">
      <stop offset="0%" style="stop-color:#3b82f6"/>
      <stop offset="100%" style="stop-color:#1d4ed8"/>
    </linearGradient>
    <linearGradient id="barGold" x1="0%" y1="0%" x2="0%" y2="100%">
      <stop offset="0%" style="stop-color:#e5c06a"/>
      <stop offset="100%" style="stop-color:#b17a32"/>
    </linearGradient>
    <filter id="softGlow" x="-20%" y="-20%" width="140%" height="140%">
      <feGaussianBlur stdDeviation="8" result="blur"/>
      <feMerge><feMergeNode in="blur"/><feMergeNode in="SourceGraphic"/></feMerge>
    </filter>
    <filter id="cardShadow">
      <feDropShadow dx="0" dy="4" stdDeviation="12" flood-color="#000000" flood-opacity="0.4"/>
    </filter>
  </defs>

  <!-- Background -->
  <rect width="1600" height="900" fill="url(#bgGrad)"/>

  <!-- Grid pattern -->
  <pattern id="grid" width="50" height="50" patternUnits="userSpaceOnUse">
    <path d="M 50 0 L 0 0 0 50" fill="none" stroke="rgba(255,255,255,0.025)" stroke-width="1"/>
  </pattern>
  <rect width="1600" height="900" fill="url(#grid)"/>

  <!-- Ambient glow blobs -->
  <ellipse cx="350" cy="500" rx="380" ry="280" fill="rgba(201,148,61,0.06)"/>
  <ellipse cx="1280" cy="300" rx="320" ry="220" fill="rgba(59,130,246,0.07)"/>
  <ellipse cx="800" cy="850" rx="400" ry="150" fill="rgba(30,60,120,0.15)"/>

  <!-- ============================================================ -->
  <!-- MAIN DASHBOARD CARD -->
  <!-- ============================================================ -->
  <rect x="80" y="70" width="1440" height="760" rx="20" fill="url(#cardGrad)" filter="url(#cardShadow)"/>
  <rect x="80" y="70" width="1440" height="760" rx="20" fill="none" stroke="rgba(201,148,61,0.18)" stroke-width="1.5"/>

  <!-- Header bar -->
  <rect x="80" y="70" width="1440" height="72" rx="20" fill="rgba(8,16,32,0.7)"/>
  <rect x="80" y="118" width="1440" height="24" fill="rgba(8,16,32,0.7)"/>

  <!-- Header left: logo + title -->
  <rect x="112" y="92" width="36" height="36" rx="8" fill="url(#goldGrad)"/>
  <text x="130" y="116" font-family="Georgia, serif" font-size="18" font-weight="700" fill="#0a1628" text-anchor="middle">V</text>
  <text x="160" y="107" font-family="Arial, sans-serif" font-size="17" font-weight="700" fill="#e5c06a">Vérité</text>
  <text x="217" y="107" font-family="Arial, sans-serif" font-size="17" fill="rgba(255,255,255,0.4)">Perícias</text>
  <rect x="250" y="97" width="1" height="18" fill="rgba(255,255,255,0.15)"/>
  <text x="262" y="107" font-family="Arial, sans-serif" font-size="14" fill="rgba(255,255,255,0.55)">Diagnóstico Empresarial</text>

  <!-- Header right: status + date -->
  <circle cx="1370" cy="106" r="5" fill="#22c55e"/>
  <text x="1383" y="111" font-family="Arial, sans-serif" font-size="12" fill="rgba(255,255,255,0.45)">Análise Ativa</text>
  <rect x="1445" y="93" width="60" height="26" rx="6" fill="rgba(201,148,61,0.15)" stroke="rgba(201,148,61,0.3)" stroke-width="1"/>
  <text x="1475" y="110" font-family="Arial, sans-serif" font-size="10" fill="#e5c06a" text-anchor="middle">LAUDO</text>

  <!-- ============================================================ -->
  <!-- LEFT PANEL — Risk Mapping -->
  <!-- ============================================================ -->
  <rect x="108" y="164" width="340" height="638" rx="14" fill="rgba(10,20,40,0.5)" stroke="rgba(255,255,255,0.04)" stroke-width="1"/>

  <text x="138" y="198" font-family="Arial, sans-serif" font-size="13" font-weight="700" fill="#e5c06a" letter-spacing="1">MAPEAMENTO DE RISCOS</text>
  <line x1="138" y1="207" x2="418" y2="207" stroke="rgba(201,148,61,0.2)" stroke-width="1"/>

  <!-- Risk item: Tributário — HIGH -->
  <rect x="124" y="218" width="308" height="66" rx="10" fill="rgba(239,68,68,0.08)" stroke="rgba(239,68,68,0.22)" stroke-width="1"/>
  <rect x="124" y="218" width="4" height="66" rx="2" fill="#ef4444"/>
  <text x="144" y="240" font-family="Arial, sans-serif" font-size="12" font-weight="700" fill="rgba(255,255,255,0.85)">Risco Tributário</text>
  <text x="144" y="256" font-family="Arial, sans-serif" font-size="10" fill="rgba(255,255,255,0.4)">Divergência SPED · Autuação potencial</text>
  <rect x="358" y="225" width="60" height="20" rx="5" fill="rgba(239,68,68,0.2)"/>
  <text x="388" y="239" font-family="Arial, sans-serif" font-size="10" font-weight="600" fill="#f87171" text-anchor="middle">ALTO</text>
  <!-- Risk bar -->
  <rect x="144" y="265" width="272" height="6" rx="3" fill="rgba(255,255,255,0.07)"/>
  <rect x="144" y="265" width="218" height="6" rx="3" fill="#ef4444" opacity="0.7"/>

  <!-- Risk item: Trabalhista — MÉDIO -->
  <rect x="124" y="296" width="308" height="66" rx="10" fill="rgba(245,158,11,0.08)" stroke="rgba(245,158,11,0.2)" stroke-width="1"/>
  <rect x="124" y="296" width="4" height="66" rx="2" fill="#f59e0b"/>
  <text x="144" y="318" font-family="Arial, sans-serif" font-size="12" font-weight="700" fill="rgba(255,255,255,0.85)">Risco Trabalhista</text>
  <text x="144" y="334" font-family="Arial, sans-serif" font-size="10" fill="rgba(255,255,255,0.4)">3 contratos irregulares · CLT</text>
  <rect x="346" y="303" width="74" height="20" rx="5" fill="rgba(245,158,11,0.2)"/>
  <text x="383" y="317" font-family="Arial, sans-serif" font-size="10" font-weight="600" fill="#fcd34d" text-anchor="middle">MÉDIO</text>
  <rect x="144" y="343" width="272" height="6" rx="3" fill="rgba(255,255,255,0.07)"/>
  <rect x="144" y="343" width="160" height="6" rx="3" fill="#f59e0b" opacity="0.7"/>

  <!-- Risk item: Financeiro — BAIXO -->
  <rect x="124" y="374" width="308" height="66" rx="10" fill="rgba(34,197,94,0.08)" stroke="rgba(34,197,94,0.2)" stroke-width="1"/>
  <rect x="124" y="374" width="4" height="66" rx="2" fill="#22c55e"/>
  <text x="144" y="396" font-family="Arial, sans-serif" font-size="12" font-weight="700" fill="rgba(255,255,255,0.85)">Risco Financeiro</text>
  <text x="144" y="412" font-family="Arial, sans-serif" font-size="10" fill="rgba(255,255,255,0.4)">Indicadores dentro dos parâmetros</text>
  <rect x="350" y="381" width="70" height="20" rx="5" fill="rgba(34,197,94,0.2)"/>
  <text x="385" y="395" font-family="Arial, sans-serif" font-size="10" font-weight="600" fill="#86efac" text-anchor="middle">BAIXO</text>
  <rect x="144" y="421" width="272" height="6" rx="3" fill="rgba(255,255,255,0.07)"/>
  <rect x="144" y="421" width="68" height="6" rx="3" fill="#22c55e" opacity="0.7"/>

  <!-- Risk item: Contábil — MÉDIO -->
  <rect x="124" y="452" width="308" height="66" rx="10" fill="rgba(245,158,11,0.08)" stroke="rgba(245,158,11,0.2)" stroke-width="1"/>
  <rect x="124" y="452" width="4" height="66" rx="2" fill="#f59e0b"/>
  <text x="144" y="474" font-family="Arial, sans-serif" font-size="12" font-weight="700" fill="rgba(255,255,255,0.85)">Risco Contábil</text>
  <text x="144" y="490" font-family="Arial, sans-serif" font-size="10" fill="rgba(255,255,255,0.4)">Divergências nas demonstrações · CPC</text>
  <rect x="346" y="459" width="74" height="20" rx="5" fill="rgba(245,158,11,0.2)"/>
  <text x="383" y="473" font-family="Arial, sans-serif" font-size="10" font-weight="600" fill="#fcd34d" text-anchor="middle">MÉDIO</text>
  <rect x="144" y="499" width="272" height="6" rx="3" fill="rgba(255,255,255,0.07)"/>
  <rect x="144" y="499" width="155" height="6" rx="3" fill="#f59e0b" opacity="0.7"/>

  <!-- Risk item: Conformidade — BAIXO -->
  <rect x="124" y="530" width="308" height="66" rx="10" fill="rgba(34,197,94,0.08)" stroke="rgba(34,197,94,0.2)" stroke-width="1"/>
  <rect x="124" y="530" width="4" height="66" rx="2" fill="#22c55e"/>
  <text x="144" y="552" font-family="Arial, sans-serif" font-size="12" font-weight="700" fill="rgba(255,255,255,0.85)">Conformidade Legal</text>
  <text x="144" y="568" font-family="Arial, sans-serif" font-size="10" fill="rgba(255,255,255,0.4)">Documentos regulares · BACEN/ISO</text>
  <rect x="350" y="537" width="70" height="20" rx="5" fill="rgba(34,197,94,0.2)"/>
  <text x="385" y="551" font-family="Arial, sans-serif" font-size="10" font-weight="600" fill="#86efac" text-anchor="middle">BAIXO</text>
  <rect x="144" y="577" width="272" height="6" rx="3" fill="rgba(255,255,255,0.07)"/>
  <rect x="144" y="577" width="72" height="6" rx="3" fill="#22c55e" opacity="0.7"/>

  <!-- Score card -->
  <rect x="124" y="614" width="308" height="162" rx="14" fill="rgba(201,148,61,0.08)" stroke="rgba(201,148,61,0.25)" stroke-width="1.5"/>
  <text x="278" y="644" font-family="Arial, sans-serif" font-size="12" fill="rgba(255,255,255,0.5)" text-anchor="middle">Score de Saúde Empresarial</text>
  <!-- Score circle -->
  <circle cx="192" cy="720" r="46" fill="none" stroke="rgba(201,148,61,0.15)" stroke-width="8"/>
  <circle cx="192" cy="720" r="46" fill="none" stroke="url(#goldGrad)" stroke-width="8"
          stroke-dasharray="202" stroke-dashoffset="56" stroke-linecap="round"
          transform="rotate(-90 192 720)"/>
  <text x="192" y="714" font-family="Arial, sans-serif" font-size="28" font-weight="700" fill="#e5c06a" text-anchor="middle">72</text>
  <text x="192" y="732" font-family="Arial, sans-serif" font-size="10" fill="rgba(255,255,255,0.35)" text-anchor="middle">de 100</text>
  <!-- Mini stats -->
  <text x="262" y="695" font-family="Arial, sans-serif" font-size="11" fill="rgba(255,255,255,0.4)">Pontuação</text>
  <text x="262" y="712" font-family="Arial, sans-serif" font-size="22" font-weight="700" fill="rgba(255,255,255,0.85)">72<tspan font-size="12" fill="rgba(255,255,255,0.4)">/100</tspan></text>
  <text x="262" y="732" font-family="Arial, sans-serif" font-size="10" fill="#f59e0b">⚠ 2 riscos críticos</text>
  <text x="262" y="748" font-family="Arial, sans-serif" font-size="10" fill="#86efac">✓ 3 áreas aprovadas</text>
  <text x="262" y="764" font-family="Arial, sans-serif" font-size="10" fill="#e5c06a">4 recomendações</text>

  <!-- ============================================================ -->
  <!-- CENTER PANEL — Charts & Compliance -->
  <!-- ============================================================ -->

  <!-- Chart panel -->
  <rect x="468" y="164" width="580" height="290" rx="14" fill="rgba(10,20,40,0.5)" stroke="rgba(255,255,255,0.04)" stroke-width="1"/>
  <text x="498" y="198" font-family="Arial, sans-serif" font-size="13" font-weight="700" fill="rgba(255,255,255,0.75)" letter-spacing="0.5">EVOLUÇÃO DE INDICADORES FINANCEIROS</text>
  <line x1="498" y1="207" x2="1018" y2="207" stroke="rgba(255,255,255,0.06)" stroke-width="1"/>

  <!-- Chart horizontal guide lines -->
  <line x1="498" y1="400" x2="1020" y2="400" stroke="rgba(255,255,255,0.05)" stroke-width="1"/>
  <line x1="498" y1="365" x2="1020" y2="365" stroke="rgba(255,255,255,0.05)" stroke-width="1"/>
  <line x1="498" y1="330" x2="1020" y2="330" stroke="rgba(255,255,255,0.05)" stroke-width="1"/>
  <line x1="498" y1="295" x2="1020" y2="295" stroke="rgba(255,255,255,0.05)" stroke-width="1"/>
  <line x1="498" y1="260" x2="1020" y2="260" stroke="rgba(255,255,255,0.05)" stroke-width="1"/>
  <line x1="498" y1="225" x2="1020" y2="225" stroke="rgba(255,255,255,0.05)" stroke-width="1"/>

  <!-- Y axis labels -->
  <text x="488" y="404" font-family="Arial, sans-serif" font-size="9" fill="rgba(255,255,255,0.25)" text-anchor="end">0</text>
  <text x="488" y="369" font-family="Arial, sans-serif" font-size="9" fill="rgba(255,255,255,0.25)" text-anchor="end">25</text>
  <text x="488" y="334" font-family="Arial, sans-serif" font-size="9" fill="rgba(255,255,255,0.25)" text-anchor="end">50</text>
  <text x="488" y="299" font-family="Arial, sans-serif" font-size="9" fill="rgba(255,255,255,0.25)" text-anchor="end">75</text>
  <text x="488" y="264" font-family="Arial, sans-serif" font-size="9" fill="rgba(255,255,255,0.25)" text-anchor="end">100</text>

  <!-- Bar groups — Q1 Q2 Q3 Q4 -->
  <!-- Q1 -->
  <rect x="530" y="320" width="36" height="80" rx="4" fill="url(#barBlue)" opacity="0.8"/>
  <rect x="572" y="355" width="36" height="45" rx="4" fill="url(#barGold)" opacity="0.8"/>
  <!-- Q2 -->
  <rect x="650" y="290" width="36" height="110" rx="4" fill="url(#barBlue)" opacity="0.8"/>
  <rect x="692" y="330" width="36" height="70" rx="4" fill="url(#barGold)" opacity="0.8"/>
  <!-- Q3 -->
  <rect x="770" y="265" width="36" height="135" rx="4" fill="url(#barBlue)" opacity="0.8"/>
  <rect x="812" y="305" width="36" height="95" rx="4" fill="url(#barGold)" opacity="0.8"/>
  <!-- Q4 -->
  <rect x="890" y="240" width="36" height="160" rx="4" fill="url(#barBlue)" opacity="0.8"/>
  <rect x="932" y="268" width="36" height="132" rx="4" fill="url(#barGold)" opacity="0.8"/>

  <!-- X labels -->
  <text x="548" y="420" font-family="Arial, sans-serif" font-size="10" fill="rgba(255,255,255,0.35)" text-anchor="middle">T1 2023</text>
  <text x="668" y="420" font-family="Arial, sans-serif" font-size="10" fill="rgba(255,255,255,0.35)" text-anchor="middle">T2 2023</text>
  <text x="788" y="420" font-family="Arial, sans-serif" font-size="10" fill="rgba(255,255,255,0.35)" text-anchor="middle">T3 2023</text>
  <text x="908" y="420" font-family="Arial, sans-serif" font-size="10" fill="rgba(255,255,255,0.35)" text-anchor="middle">T4 2023</text>

  <!-- Legend -->
  <rect x="498" y="430" width="10" height="10" rx="2" fill="#3b82f6" opacity="0.8"/>
  <text x="514" y="440" font-family="Arial, sans-serif" font-size="10" fill="rgba(255,255,255,0.45)">Exposição a Risco</text>
  <rect x="640" y="430" width="10" height="10" rx="2" fill="#e5c06a" opacity="0.8"/>
  <text x="656" y="440" font-family="Arial, sans-serif" font-size="10" fill="rgba(255,255,255,0.45)">Conformidade Verificada</text>

  <!-- Compliance panel -->
  <rect x="468" y="468" width="580" height="184" rx="14" fill="rgba(10,20,40,0.5)" stroke="rgba(255,255,255,0.04)" stroke-width="1"/>
  <text x="498" y="502" font-family="Arial, sans-serif" font-size="13" font-weight="700" fill="rgba(255,255,255,0.75)" letter-spacing="0.5">BASE NORMATIVA APLICADA</text>
  <line x1="498" y1="511" x2="1018" y2="511" stroke="rgba(255,255,255,0.06)" stroke-width="1"/>

  <!-- Norm badges row 1 -->
  <rect x="498" y="522" width="86" height="32" rx="8" fill="rgba(59,130,246,0.12)" stroke="rgba(59,130,246,0.3)" stroke-width="1"/>
  <text x="541" y="542" font-family="Arial, sans-serif" font-size="12" font-weight="700" fill="#93c5fd" text-anchor="middle">NBC TP 01</text>

  <rect x="594" y="522" width="72" height="32" rx="8" fill="rgba(168,85,247,0.12)" stroke="rgba(168,85,247,0.3)" stroke-width="1"/>
  <text x="630" y="542" font-family="Arial, sans-serif" font-size="12" font-weight="700" fill="#c4b5fd" text-anchor="middle">BACEN</text>

  <rect x="676" y="522" width="64" height="32" rx="8" fill="rgba(34,197,94,0.12)" stroke="rgba(34,197,94,0.3)" stroke-width="1"/>
  <text x="708" y="542" font-family="Arial, sans-serif" font-size="12" font-weight="700" fill="#86efac" text-anchor="middle">COSO</text>

  <rect x="750" y="522" width="60" height="32" rx="8" fill="rgba(245,158,11,0.12)" stroke="rgba(245,158,11,0.3)" stroke-width="1"/>
  <text x="780" y="542" font-family="Arial, sans-serif" font-size="12" font-weight="700" fill="#fcd34d" text-anchor="middle">CPC</text>

  <rect x="820" y="522" width="82" height="32" rx="8" fill="rgba(239,68,68,0.12)" stroke="rgba(239,68,68,0.3)" stroke-width="1"/>
  <text x="861" y="542" font-family="Arial, sans-serif" font-size="12" font-weight="700" fill="#fca5a5" text-anchor="middle">ISO 9001</text>

  <rect x="912" y="522" width="56" height="32" rx="8" fill="rgba(20,184,166,0.12)" stroke="rgba(20,184,166,0.3)" stroke-width="1"/>
  <text x="940" y="542" font-family="Arial, sans-serif" font-size="12" font-weight="700" fill="#5eead4" text-anchor="middle">CLT</text>

  <!-- Norm badges row 2 -->
  <rect x="498" y="564" width="98" height="32" rx="8" fill="rgba(249,115,22,0.12)" stroke="rgba(249,115,22,0.3)" stroke-width="1"/>
  <text x="547" y="584" font-family="Arial, sans-serif" font-size="12" font-weight="700" fill="#fed7aa" text-anchor="middle">IATF 16949</text>

  <rect x="606" y="564" width="80" height="32" rx="8" fill="rgba(59,130,246,0.12)" stroke="rgba(59,130,246,0.3)" stroke-width="1"/>
  <text x="646" y="584" font-family="Arial, sans-serif" font-size="12" font-weight="700" fill="#93c5fd" text-anchor="middle">NBC PP 01</text>

  <rect x="696" y="564" width="64" height="32" rx="8" fill="rgba(236,72,153,0.12)" stroke="rgba(236,72,153,0.3)" stroke-width="1"/>
  <text x="728" y="584" font-family="Arial, sans-serif" font-size="12" font-weight="700" fill="#f9a8d4" text-anchor="middle">SPED</text>

  <!-- Evidence panel -->
  <rect x="468" y="664" width="580" height="138" rx="14" fill="rgba(10,20,40,0.5)" stroke="rgba(255,255,255,0.04)" stroke-width="1"/>
  <text x="498" y="698" font-family="Arial, sans-serif" font-size="13" font-weight="700" fill="rgba(255,255,255,0.75)" letter-spacing="0.5">EVIDÊNCIAS IDENTIFICADAS</text>
  <line x1="498" y1="707" x2="1018" y2="707" stroke="rgba(255,255,255,0.06)" stroke-width="1"/>

  <rect x="484" y="716" width="548" height="34" rx="7" fill="rgba(239,68,68,0.07)" stroke="rgba(239,68,68,0.15)" stroke-width="1"/>
  <circle cx="502" cy="733" r="5" fill="#ef4444"/>
  <text x="517" y="737" font-family="Arial, sans-serif" font-size="11" fill="rgba(255,255,255,0.7)">Divergência em SPED Fiscal — potencial de autuação estimado em R$ 284.000</text>
  <text x="990" y="737" font-family="Arial, sans-serif" font-size="10" fill="#f87171" text-anchor="end">Crítico</text>

  <rect x="484" y="758" width="548" height="34" rx="7" fill="rgba(245,158,11,0.07)" stroke="rgba(245,158,11,0.15)" stroke-width="1"/>
  <circle cx="502" cy="775" r="5" fill="#f59e0b"/>
  <text x="517" y="779" font-family="Arial, sans-serif" font-size="11" fill="rgba(255,255,255,0.7)">Passivo trabalhista oculto — 3 contratos com irregularidades CLT identificadas</text>
  <text x="990" y="779" font-family="Arial, sans-serif" font-size="10" fill="#fcd34d" text-anchor="end">Relevante</text>

  <!-- ============================================================ -->
  <!-- RIGHT PANEL — Laudo + Recommendations -->
  <!-- ============================================================ -->
  <rect x="1068" y="164" width="424" height="638" rx="14" fill="rgba(10,20,40,0.5)" stroke="rgba(255,255,255,0.04)" stroke-width="1"/>

  <text x="1098" y="198" font-family="Arial, sans-serif" font-size="13" font-weight="700" fill="#e5c06a" letter-spacing="1">LAUDO DIAGNÓSTICO</text>
  <line x1="1098" y1="207" x2="1460" y2="207" stroke="rgba(201,148,61,0.2)" stroke-width="1"/>

  <!-- Document visual -->
  <rect x="1098" y="218" width="228" height="285" rx="10" fill="rgba(255,255,255,0.03)" stroke="rgba(255,255,255,0.07)" stroke-width="1"/>
  <!-- Doc header -->
  <rect x="1098" y="218" width="228" height="38" rx="10" fill="rgba(201,148,61,0.12)"/>
  <rect x="1098" y="242" width="228" height="14" fill="rgba(201,148,61,0.12)"/>
  <text x="1212" y="243" font-family="Georgia, serif" font-size="12" font-weight="700" fill="#e5c06a" text-anchor="middle" letter-spacing="2">LAUDO TÉCNICO</text>

  <!-- Doc lines -->
  <line x1="1116" y1="272" x2="1306" y2="272" stroke="rgba(255,255,255,0.1)" stroke-width="1.5"/>
  <line x1="1116" y1="286" x2="1306" y2="286" stroke="rgba(255,255,255,0.06)" stroke-width="1.5"/>
  <line x1="1116" y1="300" x2="1280" y2="300" stroke="rgba(255,255,255,0.06)" stroke-width="1.5"/>
  <line x1="1116" y1="314" x2="1306" y2="314" stroke="rgba(255,255,255,0.1)" stroke-width="1.5"/>
  <line x1="1116" y1="328" x2="1290" y2="328" stroke="rgba(255,255,255,0.06)" stroke-width="1.5"/>
  <line x1="1116" y1="342" x2="1306" y2="342" stroke="rgba(255,255,255,0.06)" stroke-width="1.5"/>
  <line x1="1116" y1="356" x2="1260" y2="356" stroke="rgba(255,255,255,0.06)" stroke-width="1.5"/>
  <line x1="1116" y1="370" x2="1306" y2="370" stroke="rgba(255,255,255,0.1)" stroke-width="1.5"/>
  <line x1="1116" y1="384" x2="1280" y2="384" stroke="rgba(255,255,255,0.06)" stroke-width="1.5"/>
  <line x1="1116" y1="398" x2="1306" y2="398" stroke="rgba(255,255,255,0.06)" stroke-width="1.5"/>
  <line x1="1116" y1="412" x2="1270" y2="412" stroke="rgba(255,255,255,0.06)" stroke-width="1.5"/>
  <line x1="1116" y1="426" x2="1306" y2="426" stroke="rgba(255,255,255,0.06)" stroke-width="1.5"/>
  <line x1="1116" y1="440" x2="1295" y2="440" stroke="rgba(255,255,255,0.1)" stroke-width="1.5"/>
  <line x1="1116" y1="454" x2="1306" y2="454" stroke="rgba(255,255,255,0.06)" stroke-width="1.5"/>
  <line x1="1116" y1="468" x2="1260" y2="468" stroke="rgba(255,255,255,0.06)" stroke-width="1.5"/>
  <line x1="1116" y1="482" x2="1306" y2="482" stroke="rgba(255,255,255,0.06)" stroke-width="1.5"/>

  <!-- Seal on document -->
  <circle cx="1280" cy="460" r="28" fill="none" stroke="rgba(201,148,61,0.35)" stroke-width="2"/>
  <circle cx="1280" cy="460" r="22" fill="rgba(201,148,61,0.1)" stroke="rgba(201,148,61,0.5)" stroke-width="1.5"/>
  <text x="1280" y="455" font-family="Georgia, serif" font-size="13" font-weight="700" fill="#e5c06a" text-anchor="middle">VT</text>
  <text x="1280" y="469" font-family="Arial, sans-serif" font-size="7" fill="rgba(229,192,106,0.7)" text-anchor="middle">PERÍCIAS</text>

  <!-- Magnifying glass over document -->
  <circle cx="1175" cy="430" r="42" fill="rgba(59,130,246,0.08)" stroke="rgba(59,130,246,0.35)" stroke-width="2.5"/>
  <circle cx="1175" cy="430" r="34" fill="rgba(59,130,246,0.05)"/>
  <line x1="1205" y1="458" x2="1230" y2="483" stroke="rgba(59,130,246,0.5)" stroke-width="5" stroke-linecap="round"/>
  <line x1="1226" y1="479" x2="1250" y2="503" stroke="rgba(59,130,246,0.35)" stroke-width="4" stroke-linecap="round"/>

  <!-- Recommendations -->
  <text x="1098" y="537" font-family="Arial, sans-serif" font-size="12" font-weight="700" fill="rgba(255,255,255,0.65)" letter-spacing="0.5">RECOMENDAÇÕES PRIORITÁRIAS</text>
  <line x1="1098" y1="546" x2="1460" y2="546" stroke="rgba(255,255,255,0.06)" stroke-width="1"/>

  <rect x="1086" y="556" width="376" height="40" rx="9" fill="rgba(239,68,68,0.08)" stroke="rgba(239,68,68,0.18)" stroke-width="1"/>
  <rect x="1086" y="556" width="3" height="40" rx="2" fill="#ef4444"/>
  <text x="1104" y="572" font-family="Arial, sans-serif" font-size="11" font-weight="600" fill="rgba(255,255,255,0.8)">Regularizar SPED Fiscal</text>
  <text x="1104" y="588" font-family="Arial, sans-serif" font-size="10" fill="rgba(255,255,255,0.38)">Prazo: 30 dias · Prioridade máxima</text>

  <rect x="1086" y="606" width="376" height="40" rx="9" fill="rgba(239,68,68,0.08)" stroke="rgba(239,68,68,0.18)" stroke-width="1"/>
  <rect x="1086" y="606" width="3" height="40" rx="2" fill="#ef4444"/>
  <text x="1104" y="622" font-family="Arial, sans-serif" font-size="11" font-weight="600" fill="rgba(255,255,255,0.8)">Revisão dos contratos CLT</text>
  <text x="1104" y="638" font-family="Arial, sans-serif" font-size="10" fill="rgba(255,255,255,0.38)">Prazo: 45 dias · 3 contratos irregulares</text>

  <rect x="1086" y="656" width="376" height="40" rx="9" fill="rgba(245,158,11,0.08)" stroke="rgba(245,158,11,0.18)" stroke-width="1"/>
  <rect x="1086" y="656" width="3" height="40" rx="2" fill="#f59e0b"/>
  <text x="1104" y="672" font-family="Arial, sans-serif" font-size="11" font-weight="600" fill="rgba(255,255,255,0.8)">Implementar controles antifraude</text>
  <text x="1104" y="688" font-family="Arial, sans-serif" font-size="10" fill="rgba(255,255,255,0.38)">Prazo: 90 dias · Metodologia estruturada</text>

  <rect x="1086" y="706" width="376" height="40" rx="9" fill="rgba(34,197,94,0.08)" stroke="rgba(34,197,94,0.18)" stroke-width="1"/>
  <rect x="1086" y="706" width="3" height="40" rx="2" fill="#22c55e"/>
  <text x="1104" y="722" font-family="Arial, sans-serif" font-size="11" font-weight="600" fill="rgba(255,255,255,0.8)">Certificação ISO 9001</text>
  <text x="1104" y="738" font-family="Arial, sans-serif" font-size="10" fill="rgba(255,255,255,0.38)">Prazo: 6 meses · Médio prazo</text>

  <!-- Footer info -->
  <line x1="1086" y1="758" x2="1462" y2="758" stroke="rgba(255,255,255,0.06)" stroke-width="1"/>
  <text x="1086" y="774" font-family="Arial, sans-serif" font-size="10" fill="rgba(255,255,255,0.25)">Vérité Perícias Especializadas · CRC/SP · NBC TP 01 · NBC PP 01</text>
  <text x="1462" y="774" font-family="Arial, sans-serif" font-size="10" fill="rgba(255,255,255,0.2)" text-anchor="end">Confidencial</text>

  <!-- ============================================================ -->
  <!-- BOTTOM STRIP -->
  <!-- ============================================================ -->
  <rect x="80" y="800" width="1440" height="30" rx="0" fill="rgba(8,16,32,0.6)"/>
  <rect x="80" y="800" width="1440" height="1" fill="rgba(201,148,61,0.15)"/>
  <text x="280" y="820" font-family="Arial, sans-serif" font-size="10" fill="rgba(255,255,255,0.2)" text-anchor="middle">TRIBUTÁRIO</text>
  <text x="440" y="820" font-family="Arial, sans-serif" font-size="10" fill="rgba(255,255,255,0.2)" text-anchor="middle">FINANCEIRO</text>
  <text x="600" y="820" font-family="Arial, sans-serif" font-size="10" fill="rgba(255,255,255,0.2)" text-anchor="middle">TRABALHISTA</text>
  <text x="760" y="820" font-family="Arial, sans-serif" font-size="10" fill="rgba(255,255,255,0.2)" text-anchor="middle">CONTÁBIL</text>
  <text x="920" y="820" font-family="Arial, sans-serif" font-size="10" fill="rgba(255,255,255,0.2)" text-anchor="middle">CONFORMIDADE</text>
  <text x="1090" y="820" font-family="Arial, sans-serif" font-size="10" fill="rgba(255,255,255,0.2)" text-anchor="middle">ANTIFRAUDE</text>
  <text x="1260" y="820" font-family="Arial, sans-serif" font-size="10" fill="rgba(255,255,255,0.2)" text-anchor="middle">NBC · CPC · CLT · BACEN · ISO · COSO</text>
</svg>
